<mxfile host="app.diagrams.net" modified="2024-04-05T09:34:02.127Z" agent="Mozilla/5.0 (Windows NT 10.0; Win64; x64) AppleWebKit/537.36 (KHTML, like Gecko) Chrome/123.0.0.0 Safari/537.36" version="24.2.2" etag="jf7El1hbcTX0XvX6fujA" type="github">
  <diagram name="Page-1" id="QuZUMSP4Ry_GELF9dYyj">
    <mxGraphModel>
      <root>
        <mxCell id="0" />
        <mxCell id="1" parent="0" />
      </root>
    </mxGraphModel>
  </diagram>
</mxfile>
